<svg width="435" height="1053" viewBox="0 0 435 1053" fill="none" xmlns="http://www.w3.org/2000/svg">
<g filter="url(#filter0_d_12_3)">
<path d="M330 96V947C330 947.552 329.552 948 329 948H174C149.699 948 130 928.301 130 904V336.56C130 318.683 140.816 302.583 157.367 295.825L187.167 283.657C189.053 282.887 190.976 282.253 192.947 281.736C201.594 279.469 227.361 272.529 244.359 266C264.611 258.221 275.362 253.624 292.051 240C303.048 231.023 316.028 212.386 323.604 200.716C327.902 194.095 330 186.335 330 178.442V96Z" fill="#C9C9C9"/>
<path d="M330.5 947V178.442V96H330H329.5V178.442C329.5 186.247 327.426 193.911 323.185 200.443C315.603 212.123 302.661 230.693 291.735 239.613C275.107 253.188 264.413 257.762 244.18 265.533C227.211 272.051 201.47 278.985 192.82 281.252C190.829 281.774 188.886 282.415 186.978 283.194L157.178 295.362C140.439 302.197 129.5 318.48 129.5 336.56V904C129.5 928.577 149.423 948.5 174 948.5H329C329.828 948.5 330.5 947.828 330.5 947Z" stroke="#3B8F52"/>
</g>
<defs>
<filter id="filter0_d_12_3" x="33" y="0" width="402" height="1053" filterUnits="userSpaceOnUse" color-interpolation-filters="sRGB">
<feFlood flood-opacity="0" result="BackgroundImageFix"/>
<feColorMatrix in="SourceAlpha" type="matrix" values="0 0 0 0 0 0 0 0 0 0 0 0 0 0 0 0 0 0 127 0" result="hardAlpha"/>
<feOffset dx="4" dy="4"/>
<feGaussianBlur stdDeviation="50"/>
<feComposite in2="hardAlpha" operator="out"/>
<feColorMatrix type="matrix" values="0 0 0 0 0 0 0 0 0 0 0 0 0 0 0 0 0 0 0.25 0"/>
<feBlend mode="normal" in2="BackgroundImageFix" result="effect1_dropShadow_12_3"/>
<feBlend mode="normal" in="SourceGraphic" in2="effect1_dropShadow_12_3" result="shape"/>
</filter>
</defs>
</svg>
